<?xml version="1.0" encoding="UTF-8"?>
<svg version="1.1" xmlns="http://www.w3.org/2000/svg" width="362" height="361">
<path d="M0 0 C0.83171722 0.00021149 1.66343445 0.00042297 2.52035522 0.00064087 C16.5337469 0.0360719 29.95644478 1.09237282 43.625 4.375 C44.76340332 4.63990234 44.76340332 4.63990234 45.92480469 4.91015625 C91.62223004 15.90196457 130.77276056 47.01415579 155.4296875 86.41552734 C172.79039029 114.87488204 181.07827166 146.51850435 181 179.75 C180.99978851 180.58171722 180.99957703 181.41343445 180.99935913 182.27035522 C180.9639281 196.2837469 179.90762718 209.70644478 176.625 223.375 C176.44839844 224.13393555 176.27179688 224.89287109 176.08984375 225.67480469 C165.09803543 271.37223004 133.98584421 310.52276056 94.58447266 335.1796875 C66.12511796 352.54039029 34.48149565 360.82827166 1.25 360.75 C0.41828278 360.74978851 -0.41343445 360.74957703 -1.27035522 360.74935913 C-15.2837469 360.7139281 -28.70644478 359.65762718 -42.375 356.375 C-43.13393555 356.19839844 -43.89287109 356.02179688 -44.67480469 355.83984375 C-90.37223004 344.84803543 -129.52276056 313.73584421 -154.1796875 274.33447266 C-171.54039029 245.87511796 -179.82827166 214.23149565 -179.75 181 C-179.74978851 180.16828278 -179.74957703 179.33656555 -179.74935913 178.47964478 C-179.7139281 164.4662531 -178.65762718 151.04355522 -175.375 137.375 C-175.11009766 136.23659668 -175.11009766 136.23659668 -174.83984375 135.07519531 C-163.84803543 89.37776996 -132.73584421 50.22723944 -93.33447266 25.5703125 C-64.87511796 8.20960971 -33.23149565 -0.07827166 0 0 Z " fill="#FEFDFD" transform="translate(180.375,0.625)"/>
<path d="M0 0 C0.83171722 0.00021149 1.66343445 0.00042297 2.52035522 0.00064087 C16.5337469 0.0360719 29.95644478 1.09237282 43.625 4.375 C44.76340332 4.63990234 44.76340332 4.63990234 45.92480469 4.91015625 C91.62223004 15.90196457 130.77276056 47.01415579 155.4296875 86.41552734 C172.79039029 114.87488204 181.07827166 146.51850435 181 179.75 C180.99978851 180.58171722 180.99957703 181.41343445 180.99935913 182.27035522 C180.9639281 196.2837469 179.90762718 209.70644478 176.625 223.375 C176.44839844 224.13393555 176.27179688 224.89287109 176.08984375 225.67480469 C165.09803543 271.37223004 133.98584421 310.52276056 94.58447266 335.1796875 C66.12511796 352.54039029 34.48149565 360.82827166 1.25 360.75 C0.41828278 360.74978851 -0.41343445 360.74957703 -1.27035522 360.74935913 C-15.2837469 360.7139281 -28.70644478 359.65762718 -42.375 356.375 C-43.13393555 356.19839844 -43.89287109 356.02179688 -44.67480469 355.83984375 C-90.37223004 344.84803543 -129.52276056 313.73584421 -154.1796875 274.33447266 C-171.54039029 245.87511796 -179.82827166 214.23149565 -179.75 181 C-179.74978851 180.16828278 -179.74957703 179.33656555 -179.74935913 178.47964478 C-179.7139281 164.4662531 -178.65762718 151.04355522 -175.375 137.375 C-175.11009766 136.23659668 -175.11009766 136.23659668 -174.83984375 135.07519531 C-163.84803543 89.37776996 -132.73584421 50.22723944 -93.33447266 25.5703125 C-64.87511796 8.20960971 -33.23149565 -0.07827166 0 0 Z M-69.375 38.375 C-70.03097168 38.68808105 -70.68694336 39.00116211 -71.36279297 39.32373047 C-107.43767889 56.70334269 -134.99333623 89.91189743 -148.81640625 127.1640625 C-151.68559523 135.43760445 -153.84390539 143.75484884 -155.375 152.375 C-155.54491455 153.30054688 -155.7148291 154.22609375 -155.88989258 155.1796875 C-157.31764886 163.53107512 -157.72498445 171.66057575 -157.6875 180.125 C-157.68567719 180.78174713 -157.68385437 181.43849426 -157.68197632 182.11514282 C-157.63330165 192.56339072 -156.90955351 202.23923718 -154.375 212.375 C-154.19807617 213.13280762 -154.02115234 213.89061523 -153.83886719 214.67138672 C-146.49405386 246.08663752 -131.21051353 272.65211539 -108.375 295.375 C-107.11429688 296.63570313 -107.11429688 296.63570313 -105.828125 297.921875 C-84.46784508 318.13529425 -56.73694062 330.13138778 -28.375 336.375 C-27.24964844 336.62507813 -26.12429687 336.87515625 -24.96484375 337.1328125 C5.16829543 342.54230146 39.03842244 337.41846398 66.625 324.375 C67.72207275 323.85728027 67.72207275 323.85728027 68.84130859 323.32910156 C106.69823408 305.12579218 135.96302914 272.64636147 149.97338867 232.96557617 C159.4400816 205.19641185 162.20490648 175.16856715 155.625 146.375 C155.45871094 145.63282227 155.29242188 144.89064453 155.12109375 144.12597656 C148.62757097 116.11965332 133.74565352 91.54948141 114.625 70.375 C113.94824219 69.62476563 113.27148438 68.87453125 112.57421875 68.1015625 C86.12736909 40.35219134 45.83369998 23.16281928 7.69921875 22.171875 C-19.97270677 21.83309675 -44.46041535 26.24243064 -69.375 38.375 Z " fill="#6F3C07" transform="translate(180.375,0.625)"/>
<path d="M0 0 C2.52014787 2.26753162 3.63174779 4.9403659 5 8 C5.92879543 9.60922217 6.86620866 11.21350355 7.8125 12.8125 C9.42805998 15.62108889 10 16.69328295 10 20 C9.44650879 20.07516846 8.89301758 20.15033691 8.32275391 20.2277832 C-12.4446986 23.08681959 -33.30184816 27.64150138 -48 44 C-57.4830367 57.91689927 -60.34289274 72.67531348 -57.61914062 89.32861328 C-56.67149169 93.63654798 -55.37321937 97.80864771 -54 102 C-53.65246421 103.32970213 -53.31167492 104.66143822 -53 106 C-52.34515625 105.45472656 -51.6903125 104.90945312 -51.015625 104.34765625 C-37.90819691 93.51736609 -25.47884131 83.54720313 -9.19921875 78.078125 C-7.23366077 77.41573916 -5.28164151 76.70883103 -3.359375 75.9296875 C10.76716546 70.36326924 27.87906449 72.04972057 41.6875 77.75 C61.86437272 87.65161347 75.9739832 103.86393778 87 123 C87.37962891 123.65613281 87.75925781 124.31226563 88.15039062 124.98828125 C92.76501718 133.05377565 96.41528163 141.04579707 99 150 C99.37125 151.0209375 99.7425 152.041875 100.125 153.09375 C106.83958979 173.42403576 104.73310249 196.68014581 95.375 215.75 C82.16367904 237.92614591 59.48727463 251.30523397 34.9375 257.6875 C32.96267409 258.14419417 30.98363892 258.58324639 29 259 C28.23042969 259.17789062 27.46085937 259.35578125 26.66796875 259.5390625 C24.625 259.8125 24.625 259.8125 21 259 C18.40200056 255.96385814 16.75734888 252.56915083 15 249 C14.04804449 247.32968229 13.09018262 245.66270956 12.125 244 C10 240.25786164 10 240.25786164 10 238 C10.81339844 237.98582031 11.62679687 237.97164062 12.46484375 237.95703125 C30.76495016 237.19538453 51.22183983 230.78663257 64.8125 218 C75.37963945 205.79776045 79.29418191 192.18097912 78.24511719 176.3046875 C77.35639749 167.94859796 74.69692497 159.92069857 72 152 C68.99133649 153.33501303 67.08340542 154.76269304 64.875 157.1875 C48.66348915 173.77602273 24.16830153 184.24894612 1.125 184.625 C-14.22048988 184.53479484 -27.34806436 180.12261909 -39 170 C-39.886875 169.28328125 -40.77375 168.5665625 -41.6875 167.828125 C-64.96008893 148.12576278 -80.45961901 116.0264388 -84 86 C-84.53606305 75.58800614 -84.10731433 66.04193046 -81 56 C-80.68289062 54.94425781 -80.36578125 53.88851562 -80.0390625 52.80078125 C-73.49024178 33.54910616 -59.21555126 20.88638421 -42 11 C-41.23042969 10.4946875 -40.46085937 9.989375 -39.66796875 9.46875 C-35.99344797 7.44588058 -32.16987734 6.22330474 -28.1875 4.9375 C-27.41857422 4.68162109 -26.64964844 4.42574219 -25.85742188 4.16210938 C-7.77215121 -1.77474319 -7.77215121 -1.77474319 0 0 Z " fill="#020202" transform="translate(163,53)"/>
<path d="M0 0 C4.59205853 3.73402683 8.79800293 7.83868617 13 12 C13.73605469 12.67546875 14.47210938 13.3509375 15.23046875 14.046875 C36.66411391 34.06872318 47.86614682 64.86625444 49.1640625 93.63671875 C50.10315256 127.34554111 39.23514831 157.79430652 16.2734375 182.59765625 C15.14808594 183.78681641 15.14808594 183.78681641 14 185 C12.93652344 186.14275391 12.93652344 186.14275391 11.8515625 187.30859375 C6.0809806 193.31874855 -0.24166507 198.16281612 -7 203 C-7.66 202.67 -8.32 202.34 -9 202 C-8.33613281 201.18917969 -7.67226562 200.37835938 -6.98828125 199.54296875 C-1.50882896 192.7273428 2.97273385 186.28757272 6 178 C6.39058594 177.071875 6.78117188 176.14375 7.18359375 175.1875 C13.15239956 158.66485415 12.09077298 137.31185139 6 121 C5.57997807 119.72896845 5.16344278 118.45678058 4.75 117.18359375 C-4.55067706 89.56329841 -23.13392788 63.96509879 -49 50 C-51.96119557 48.67077323 -54.8426256 47.73801546 -58 47 C-58.82628906 46.79761719 -59.65257812 46.59523438 -60.50390625 46.38671875 C-83.32072419 41.50451753 -104.10828454 48.82237593 -123.2265625 61.06640625 C-129.65432557 65.34624087 -135.49450724 70.00537927 -141.07421875 75.34765625 C-143 77 -143 77 -145 77 C-149.55033725 67.46596005 -151.27096446 58.27008212 -151.3125 47.75 C-151.31789795 46.91057861 -151.3232959 46.07115723 -151.32885742 45.20629883 C-151.17499072 31.65933919 -145.81547264 20.05780284 -136.50390625 10.2578125 C-132.37709961 6.53660464 -127.80951888 3.74725548 -123 1 C-121.83017578 0.24203125 -121.83017578 0.24203125 -120.63671875 -0.53125 C-117.40467505 -2.33161805 -114.08191578 -3.47858803 -110.5625 -4.5625 C-109.51666748 -4.8867395 -109.51666748 -4.8867395 -108.44970703 -5.2175293 C-99.79162403 -7.79417637 -91.05290701 -9.14952249 -82 -9 C-82.433125 -9.84304687 -82.86625 -10.68609375 -83.3125 -11.5546875 C-83.869375 -12.65039062 -84.42625 -13.74609375 -85 -14.875 C-85.556875 -15.96554688 -86.11375 -17.05609375 -86.6875 -18.1796875 C-88 -21 -88 -21 -88 -23 C-57.88731701 -28.78200518 -24.1937784 -17.91600149 0 0 Z " fill="#E9E9E9" transform="translate(255,82)"/>
<path d="M0 0 C0.66 0.33 1.32 0.66 2 1 C1.855625 1.59683594 1.71125 2.19367188 1.5625 2.80859375 C-1.50118404 17.12706151 -0.32249243 30.89099726 3 45 C3.20496094 45.87785156 3.40992187 46.75570312 3.62109375 47.66015625 C8.68261618 66.49153473 19.01777071 85.54629316 32 100 C32.63292969 100.77472656 33.26585937 101.54945313 33.91796875 102.34765625 C41.23129201 111.13872318 50.23885623 118.05852485 61 122 C61.80824219 122.36996094 62.61648437 122.73992187 63.44921875 123.12109375 C70.33166569 125.95850768 76.77585557 126.36271354 84.125 126.375 C85.0430542 126.37661133 85.9611084 126.37822266 86.90698242 126.37988281 C95.88932273 126.23507124 103.82552064 124.79529399 112 121 C113.52041629 120.43637371 115.04129218 119.87398646 116.5625 119.3125 C130.6238749 113.67085415 142.59388605 104.9686066 153 94 C153.99 94.33 154.98 94.66 156 95 C157.02882004 97.57799704 157.86277164 100.03146352 158.625 102.6875 C158.8415625 103.39583984 159.058125 104.10417969 159.28125 104.83398438 C163.81849759 120.00015458 163.69800085 135.30957273 156.71484375 149.63671875 C147.8775683 165.71120585 131.24540338 174.61359555 114.0625 179.6875 C107.00290552 181.30402219 100.21820017 181.40039323 93 181 C93.433125 181.77085937 93.86625 182.54171875 94.3125 183.3359375 C94.869375 184.33882812 95.42625 185.34171875 96 186.375 C96.556875 187.37273437 97.11375 188.37046875 97.6875 189.3984375 C99 192 99 192 99 194 C70.10154291 195.6852232 41.12714421 182.3662405 19.875 163.5625 C18.24313496 162.04903526 16.61793737 160.52834475 15 159 C14.24976563 158.31421875 13.49953125 157.6284375 12.7265625 156.921875 C-8.29368065 137.00796044 -21.10624729 106.8954276 -22.2421875 78.09765625 C-22.85436531 50.56025523 -16.85343698 22.40741053 0 0 Z " fill="#E9E9E9" transform="translate(80,110)"/>
<path d="M0 0 C8.12508197 6.30019725 14.38136023 13.64296956 19.921875 22.265625 C8.50793002 36.38287274 -7.72480332 49.16334959 -26.078125 52.265625 C-41.56504301 53.87689021 -53.68938257 49.77385182 -65.9453125 40.25390625 C-66.64914063 39.59777344 -67.35296875 38.94164062 -68.078125 38.265625 C-68.078125 37.605625 -68.078125 36.945625 -68.078125 36.265625 C-68.90376953 35.96591797 -68.90376953 35.96591797 -69.74609375 35.66015625 C-73.02675202 33.69835558 -75.09035014 30.93520795 -77.390625 27.953125 C-77.85791016 27.38400391 -78.32519531 26.81488281 -78.80664062 26.22851562 C-80.83026283 23.62500759 -82.08006649 21.93349771 -82.0703125 18.578125 C-77.28380564 7.422172 -59.91359597 -2.3860457 -49.078125 -6.734375 C-31.87864993 -13.54769363 -14.8200833 -10.36637951 0 0 Z " fill="#E8E8E8" transform="translate(204.078125,160.734375)"/>
<path d="M0 0 C0.66 0.33 1.32 0.66 2 1 C-5.59 8.59 -13.18 16.18 -21 24 C-21.66 23.67 -22.32 23.34 -23 23 C-15.7215545 14.79730745 -8.41380126 7.04011942 0 0 Z " fill="#A38261" transform="translate(67,40)"/>
</svg>
